<svg version="1.2" xmlns="http://www.w3.org/2000/svg" viewBox="0 0 277 49" width="277" height="49">
	<title>celatislogo2</title>
	<defs>
		<linearGradient id="g1" x1="34.1" y1="59.7" x2="34.1" y2="-17.7" gradientUnits="userSpaceOnUse">
			<stop offset="0" stop-color="#fbb534"/>
			<stop offset=".067" stop-color="#fbb534"/>
			<stop offset=".64" stop-color="#f7cb7b"/>
			<stop offset="1" stop-color="#ffa500"/>
		</linearGradient>
		<linearGradient id="g2" x1="254.4" y1="64.1" x2="254.4" y2="-21.1" gradientUnits="userSpaceOnUse">
			<stop offset="0" stop-color="#fbb534"/>
			<stop offset=".067" stop-color="#fbb534"/>
			<stop offset=".64" stop-color="#f7cb7b"/>
			<stop offset="1" stop-color="#ffa500"/>
		</linearGradient>
	</defs>
	<style>
		.s0 { fill: url(#g1) } 
		.s1 { fill: #ffffff } 
		.s2 { fill: url(#g2) } 
		.s3 { fill: #292929 } 
	</style>
	<path id="Shape 1" class="s0" d="m8 6h30v30h-30z"/>
	<path id="celatis" class="s1" aria-label="celatis"  d="m58 34.5q-3.7 0-5.6-1.1-1.9-1.1-2.7-3.8-0.7-2.7-0.7-8.1 0-5.4 0.7-8.1 0.8-2.8 2.7-3.8 1.9-1.1 5.6-1.1 2 0 4.3 0.2 2.2 0.3 3.8 0.7l-0.6 3.8q-3.6-0.8-7-0.8-2.4 0-3.4 1-0.9 0.9-0.9 3.2v13.4q1.8 0.5 5.1 0.5 1.6 0 3.1-0.2 1.6-0.3 3.7-0.9l0.6 3.6q-1.7 0.7-4 1.1-2.3 0.4-4.7 0.4zm24.3-4q2 0 3.9-0.2 2-0.3 4.7-0.9l0.7 3.6q-1.9 0.7-4.6 1.1-2.8 0.4-5.7 0.4-3.8 0-5.9-1.1-2.1-1.2-2.9-3.9-0.8-2.8-0.8-8 0-5.1 0.9-7.8 1-2.8 3.2-4 2.3-1.2 6.4-1.2 4 0 6.2 0.6 2.1 0.7 3 2.3 0.8 1.5 0.8 4.6 0 3.6-1 5.2-1.1 1.7-4.2 2.2-3 0.5-10.1 0.5v6.1q2 0.5 5.3 0.5zm-1.1-17.9q-2.4 0-3.4 0.6-0.8 0.6-0.8 2.3v5.2h6.6q2.5 0 3.3-0.6 0.9-0.6 0.9-2.3v-5.2zm23.9 17.7q1 0.1 2.3 0.2l-0.3 3.5q-1.9 0.5-3.3 0.5-1.9 0-2.8-0.9-0.9-1-0.9-2.9v-29.2l5-0.8zm18.1-21.8q3.4 0 5.4 0.7 2 0.7 2.9 2.2 0.9 1.5 0.9 4.1v18.5h-2.3l-1.4-2.5q-1.8 1.6-4 2.3-2.1 0.7-4.9 0.7-4.2 0-5.9-1.7-1.8-1.7-1.8-5.8 0-3.6 1-5.2 1-1.6 3.9-2.2 3-0.5 9.6-0.5h0.8v-6.1q-1.9-0.5-5.1-0.5-4 0-8.4 1.2l-0.7-3.7q1.9-0.6 4.6-1 2.8-0.5 5.4-0.5zm0.2 22.2q2.3 0 3.1-0.6 0.9-0.6 0.9-2.3v-5.5h-6.7q-2.3 0-3.2 0.6-0.8 0.6-0.8 2.3v5.5zm28.7-18.2h-4.5v17.8q1.9 0.2 3.6 0.3l-0.3 3.4q-2.8 0.5-4.6 0.5-1.8 0-2.8-0.9-0.9-0.9-0.9-2.8v-18.3h-3.5v-3.5h3.5v-5.3l5-1.3v6.6h4.5zm6.7-3.1l5-0.7v25.4h-5zm2.6-4.7q-1.9 0-2.5-0.6-0.6-0.6-0.6-2.4 0-1.8 0.7-2.5 0.6-0.6 2.4-0.6 1.7 0 2.4 0.6 0.6 0.7 0.6 2.5 0 1.8-0.6 2.4-0.6 0.6-2.4 0.6zm9.7 11.1q0-3.9 2.3-5.7 2.3-1.8 7.2-1.8 4.4 0 8.3 1.1l-0.7 3.7q-1.2-0.4-3-0.6-1.7-0.2-3.1-0.2-3 0-5.7 0.4v5.9q6 0.9 8.8 1.7 2.8 0.9 3.9 2.4 1 1.5 1 4.3 0 2.9-1 4.6-1 1.7-3.3 2.5-2.3 0.7-6.2 0.7-4.3 0-9-1.4l0.8-4q3.8 1.5 8.2 1.5 1.5 0 2.6-0.2 1.2-0.1 2.7-0.5v-5.9q-6.4-0.9-9.2-1.8-2.8-0.8-3.7-2.2-0.9-1.5-0.9-4.5z"/>
	<path id="Shape 4" class="s2" d="m197 21.5c0-9.1 7.4-16.5 16.5-16.5h33c9.1 0 16.5 7.4 16.5 16.5 0 9.1-7.4 16.5-16.5 16.5h-33c-9.1 0-16.5-7.4-16.5-16.5z"/>
	<path id="beta" class="s3" aria-label="beta"  d="m214.1 16.6q1.8 0 2.7 0.6 0.9 0.5 1.3 1.8 0.3 1.4 0.3 4 0 2.6-0.4 3.9-0.3 1.3-1.4 1.8-1 0.5-3 0.5-1.4 0-2.6-0.1-1.2-0.2-2.6-0.6v-15.5l2.4-0.2v4.4q0.5-0.3 1.3-0.4 0.8-0.2 2-0.2zm1.8 10.2v-8.2h-4q-0.7 0-0.9 0.1-0.2 0.1-0.2 0.5v8.1h4q0.6 0 0.9-0.1 0.2-0.1 0.2-0.4zm10.5 0.5q1 0 1.9-0.1 1-0.1 2.3-0.4l0.3 1.7q-0.9 0.4-2.2 0.5-1.3 0.2-2.7 0.2-1.9 0-2.9-0.5-1-0.5-1.4-1.9-0.4-1.3-0.4-3.8 0-2.4 0.5-3.7 0.5-1.4 1.5-2 1.1-0.5 3.1-0.5 1.9 0 2.9 0.3 1.1 0.3 1.5 1.1 0.4 0.7 0.4 2.2 0 1.7-0.5 2.5-0.5 0.7-2 1-1.5 0.3-4.9 0.3v2.9q1 0.2 2.6 0.2zm-0.6-8.6q-1.1 0-1.5 0.3-0.5 0.3-0.5 1.1v2.5h3.2q1.2 0 1.6-0.3 0.4-0.3 0.4-1.1v-2.5zm14.5 0h-2.2v8.5q0.9 0.1 1.7 0.1l-0.1 1.7q-1.3 0.2-2.2 0.2-0.9 0-1.3-0.4-0.5-0.4-0.5-1.4v-8.7h-1.6v-1.7h1.6v-2.6l2.4-0.6v3.2h2.2zm7.7-1.9q1.6 0 2.6 0.3 1 0.4 1.4 1.1 0.4 0.7 0.4 2v8.8h-1.1l-0.7-1.2q-0.8 0.8-1.9 1.1-1 0.4-2.4 0.4-1.9 0-2.8-0.8-0.8-0.9-0.8-2.8 0-1.8 0.5-2.5 0.4-0.8 1.8-1.1 1.4-0.2 4.6-0.2h0.4v-2.9q-0.9-0.3-2.4-0.3-1.9 0-4.1 0.6l-0.3-1.8q0.9-0.3 2.2-0.5 1.3-0.2 2.6-0.2zm0.1 10.6q1.1 0 1.5-0.3 0.4-0.2 0.4-1.1v-2.6h-3.2q-1.1 0-1.5 0.3-0.4 0.3-0.4 1.1v2.6z"/>
</svg>